<svg width="24" height="24" viewBox="0 0 24 24" fill="none" xmlns="http://www.w3.org/2000/svg">
<path d="M7.2248 8.51094L10.9498 2.43594C11.0498 2.26927 11.1748 2.14844 11.3248 2.07344C11.4748 1.99844 11.6331 1.96094 11.7998 1.96094C11.9665 1.96094 12.1248 1.99844 12.2748 2.07344C12.4248 2.14844 12.5498 2.26927 12.6498 2.43594L16.3748 8.51094C16.4748 8.6776 16.5248 8.8526 16.5248 9.03594C16.5248 9.21927 16.4831 9.38594 16.3998 9.53594C16.3165 9.68594 16.1998 9.80677 16.0498 9.89844C15.8998 9.9901 15.7248 10.0359 15.5248 10.0359H8.0748C7.8748 10.0359 7.6998 9.9901 7.5498 9.89844C7.3998 9.80677 7.28314 9.68594 7.1998 9.53594C7.11647 9.38594 7.0748 9.21927 7.0748 9.03594C7.0748 8.8526 7.1248 8.6776 7.2248 8.51094Z" fill="#84D8FF"/>
<path d="M2.7998 19.5359V13.5359C2.7998 13.2526 2.89564 13.0151 3.0873 12.8234C3.27897 12.6318 3.51647 12.5359 3.7998 12.5359H9.7998C10.0831 12.5359 10.3206 12.6318 10.5123 12.8234C10.704 13.0151 10.7998 13.2526 10.7998 13.5359V19.5359C10.7998 19.8193 10.704 20.0568 10.5123 20.2484C10.3206 20.4401 10.0831 20.5359 9.7998 20.5359H3.7998C3.51647 20.5359 3.27897 20.4401 3.0873 20.2484C2.89564 20.0568 2.7998 19.8193 2.7998 19.5359Z" fill="#1CB0F6"/>
<path d="M17.2998 21.0359C16.0498 21.0359 14.9873 20.5984 14.1123 19.7234C13.2373 18.8484 12.7998 17.7859 12.7998 16.5359C12.7998 15.2859 13.2373 14.2234 14.1123 13.3484C14.9873 12.4734 16.0498 12.0359 17.2998 12.0359C18.5498 12.0359 19.6123 12.4734 20.4873 13.3484C21.3623 14.2234 21.7998 15.2859 21.7998 16.5359C21.7998 17.7859 21.3623 18.8484 20.4873 19.7234C19.6123 20.5984 18.5498 21.0359 17.2998 21.0359Z" fill="#1CB0F6"/>
</svg>
