<svg width="24" height="24" viewBox="0 0 24 24" fill="none" xmlns="http://www.w3.org/2000/svg">
<path fill-rule="evenodd" clip-rule="evenodd" d="M5.4998 17.2734L10.4998 19.9734C10.6498 20.0568 10.804 20.1193 10.9623 20.1609C11.1206 20.2026 11.2831 20.2234 11.4498 20.2234C11.6165 20.2234 11.779 20.2026 11.9373 20.1609C12.0956 20.1193 12.2498 20.0568 12.3998 19.9734L17.3998 17.2734C17.7331 17.0901 17.9915 16.8401 18.1748 16.5234C18.3581 16.2068 18.4498 15.8651 18.4498 15.4984V11.6984L12.3998 14.9734C12.0998 15.1401 11.7831 15.2234 11.4498 15.2234C11.1165 15.2234 10.7998 15.1401 10.4998 14.9734L4.4498 11.6984V15.4984C4.4498 15.8651 4.54147 16.2068 4.7248 16.5234C4.90814 16.8401 5.16647 17.0901 5.4998 17.2734Z" fill="#FFC800"/>
<path d="M20.4498 15.4984V9.59844L12.3998 13.9734C12.0998 14.1401 11.7831 14.2234 11.4498 14.2234C11.1165 14.2234 10.7998 14.1401 10.4998 13.9734L2.0498 9.37344C1.86647 9.27344 1.7373 9.14844 1.6623 8.99844C1.5873 8.84844 1.5498 8.68177 1.5498 8.49844C1.5498 8.3151 1.5873 8.14844 1.6623 7.99844C1.7373 7.84844 1.86647 7.72344 2.0498 7.62344L10.4998 3.02344C10.6498 2.9401 10.804 2.8776 10.9623 2.83594C11.1206 2.79427 11.2831 2.77344 11.4498 2.77344C11.6165 2.77344 11.779 2.79427 11.9373 2.83594C12.0956 2.8776 12.2498 2.9401 12.3998 3.02344L21.9248 8.22344C22.0915 8.30677 22.2206 8.4276 22.3123 8.58594C22.404 8.74427 22.4498 8.9151 22.4498 9.09844V15.4984C22.4498 15.7818 22.354 16.0193 22.1623 16.2109C21.9706 16.4026 21.7331 16.4984 21.4498 16.4984C21.1665 16.4984 20.929 16.4026 20.7373 16.2109C20.5456 16.0193 20.4498 15.7818 20.4498 15.4984Z" fill="#FF9600"/>
<rect x="4.81543" y="7.08984" width="7.82761" height="1.69324" rx="0.846619" transform="rotate(-28.8846 4.81543 7.08984)" fill="#FFB54C"/>
</svg>
