<svg width="19" height="19" viewBox="0 0 19 19" fill="none" xmlns="http://www.w3.org/2000/svg">
<path d="M18.7831 13.5645C18.7831 11.2593 16.9144 9.39062 14.6092 9.39062H13.0439V17.7385H14.6092C16.9144 17.7385 18.7831 15.8697 18.7831 13.5645Z" fill="#CE82FF"/>
<path d="M0 13.5645C0 11.2593 1.86873 9.39062 4.17392 9.39062H5.73914V17.7385H4.17392C1.86873 17.7385 0 15.8697 0 13.5645Z" fill="#CE82FF"/>
<path fill-rule="evenodd" clip-rule="evenodd" d="M1.56522 9.3913C1.56522 5.06906 5.06907 1.56522 9.39131 1.56522C13.7136 1.56522 17.2174 5.06906 17.2174 9.3913V12.5217H14.6087V14.087H17.2174H18.7826V12.5217V9.3913C18.7826 4.20464 14.578 0 9.39131 0C4.20465 0 0 4.20464 0 9.3913V12.5217V14.087H1.56522H3.65218V12.5217H1.56522V9.3913Z" fill="#CE82FF"/>
<path d="M3.13086 10.4346C3.13086 9.28204 4.06524 8.34766 5.21782 8.34766C6.37039 8.34766 7.30477 9.28204 7.30477 10.4346V16.6955C7.30477 17.8481 6.37039 18.7824 5.21782 18.7824C4.06524 18.7824 3.13086 17.8481 3.13086 16.6955V10.4346Z" fill="#9069CD"/>
<path d="M11.4785 10.4346C11.4785 9.28204 12.4129 8.34766 13.5655 8.34766C14.718 8.34766 15.6524 9.28204 15.6524 10.4346V16.6955C15.6524 17.8481 14.718 18.7824 13.5655 18.7824C12.4129 18.7824 11.4785 17.8481 11.4785 16.6955V10.4346Z" fill="#9069CD"/>
</svg>
