<svg width="24" height="24" viewBox="0 0 24 24" fill="none" xmlns="http://www.w3.org/2000/svg">
<path d="M11.5228 20.5007C15.9283 20.5007 19.4997 16.9293 19.4997 12.5238C19.4997 8.11826 15.9283 4.54688 11.5228 4.54688C7.11728 4.54688 3.5459 8.11826 3.5459 12.5238C3.5459 16.9293 7.11728 20.5007 11.5228 20.5007Z" fill="#ECFFDE" stroke="#58CC02" stroke-width="1.99423"/>
<path d="M11.5226 16.5121C13.7254 16.5121 15.5111 14.7264 15.5111 12.5236C15.5111 10.3208 13.7254 8.53516 11.5226 8.53516C9.31987 8.53516 7.53418 10.3208 7.53418 12.5236C7.53418 14.7264 9.31987 16.5121 11.5226 16.5121Z" fill="#ECFFDE" stroke="#58CC02" stroke-width="1.99423"/>
<path fill-rule="evenodd" clip-rule="evenodd" d="M20.1 5.19174L16.4621 7.9972L15.9225 5.26627C15.9107 5.10052 15.9353 4.90673 16.0808 4.79454L18.9184 2.60631C19.1367 2.43798 19.3949 2.47194 19.564 2.69121C19.6203 2.7643 19.6485 2.80085 19.6403 2.86543L20.1 5.19174Z" fill="#58A700"/>
<path fill-rule="evenodd" clip-rule="evenodd" d="M20.6633 5.92188L17.0254 8.72729L19.5295 9.94325C19.6868 9.99676 19.8804 10.0222 20.026 9.90999L22.8635 7.7218C23.0818 7.55347 23.1146 7.29506 22.9455 7.07581C22.8891 7.00272 22.861 6.96615 22.7964 6.95768L20.6633 5.92188Z" fill="#58A700"/>
<path d="M19.7301 5.37528L11.2356 11.9259C10.9448 12.1502 10.8908 12.5678 11.1151 12.8586C11.3394 13.1495 11.757 13.2034 12.0478 12.9792L20.5423 6.42851C20.8331 6.20422 20.8871 5.78663 20.6628 5.49579C20.4385 5.20495 20.0209 5.15099 19.7301 5.37528Z" fill="#478700"/>
</svg>
