<svg width="24" height="24" viewBox="0 0 24 24" fill="none" xmlns="http://www.w3.org/2000/svg">
<g clip-path="url(#clip0_5198_13665)">
<path d="M17.4355 6.21094V6.70007C17.4355 6.43035 17.2161 6.21094 16.9464 6.21094H17.4355Z" fill="black"/>
<path d="M2.09711 12.4317L5.83966 14.5937L7.75844 15.7019C7.75844 15.7019 7.76124 15.7033 7.76264 15.7047C8.09245 15.892 8.50472 15.6516 8.50472 15.2701V13.5581C8.50472 13.2828 8.72692 13.0606 9.00223 13.0606H14.5308C14.8061 13.0606 15.0283 12.8384 15.0283 12.5631V11.4395C15.0283 11.1642 14.8061 10.942 14.5308 10.942H9.00223C8.72692 10.942 8.50472 10.7198 8.50472 10.4445V8.7339C8.50472 8.35238 8.09245 8.11201 7.76264 8.29928C7.76124 8.30067 7.75984 8.30067 7.75844 8.30207L5.83966 9.4103L2.09711 11.5709C1.7659 11.7623 1.7659 12.2403 2.09711 12.4317Z" fill="#B20000"/>
<path d="M14.7542 4.57897V5.71935C14.7542 5.98907 14.9736 6.20848 15.2434 6.20848H17.4361V8.45988C17.4361 8.7296 17.6555 8.94901 17.9252 8.94901H19.0656C19.3353 8.94901 19.5547 8.7296 19.5547 8.45988V4.57897C19.5547 4.30925 19.3353 4.08984 19.0656 4.08984H15.2434C14.9736 4.08984 14.7542 4.30925 14.7542 4.57897Z" fill="#FFA5A5"/>
<path d="M14.5305 10.9407H9.00197C8.72666 10.9407 8.50445 10.7185 8.50445 10.4432V8.73261C8.50445 8.35109 8.09218 8.11071 7.76237 8.29798L7.75818 8.30078L5.83939 9.40901V4.11801C5.83939 3.50031 6.3397 3 6.9574 3H19.4484C20.0661 3 20.5664 3.50031 20.5664 4.11801V19.882C20.5664 20.4997 20.0661 21 19.4484 21H6.9574C6.3397 21 5.83939 20.4997 5.83939 19.882V14.5924L7.75818 15.7006L7.76237 15.7034C8.09218 15.8907 8.50445 15.6503 8.50445 15.2688V13.5568C8.50445 13.2815 8.72666 13.0593 9.00197 13.0593H14.5305C14.8058 13.0593 15.0281 12.8371 15.0281 12.5618V11.4382C15.0281 11.1629 14.8058 10.9407 14.5305 10.9407ZM15.2433 6.21009H16.9468C17.2166 6.21009 17.436 6.4295 17.436 6.69922V8.46149C17.436 8.73121 17.6554 8.95062 17.9251 8.95062H19.0655C19.3352 8.95062 19.5546 8.73121 19.5546 8.46149V4.58059C19.5546 4.31087 19.3352 4.09146 19.0655 4.09146H15.2433C14.9735 4.09146 14.7541 4.31087 14.7541 4.58059V5.72096C14.7541 5.99068 14.9735 6.21009 15.2433 6.21009Z" fill="#FFD2D2"/>
<path d="M16.9464 6.21094C17.2161 6.21094 17.4355 6.43035 17.4355 6.70007V6.21094H16.9464Z" fill="#FFA5A5"/>
</g>
<defs>
<clipPath id="clip0_5198_13665">
<rect width="18.7183" height="18" fill="white" transform="matrix(-1 0 0 1 20.5664 3)"/>
</clipPath>
</defs>
</svg>
