<svg width="24" height="24" viewBox="0 0 24 24" fill="none" xmlns="http://www.w3.org/2000/svg">
<path d="M19.527 2.89453H8.4591C7.98387 2.89453 7.59863 3.27977 7.59863 3.755V20.1379C7.59863 20.6131 7.98387 20.9983 8.4591 20.9983H19.527C20.0023 20.9983 20.3875 20.6131 20.3875 20.1379V3.755C20.3875 3.27977 20.0023 2.89453 19.527 2.89453Z" fill="#F9B008"/>
<path d="M16.5675 4.01953H19.0245C19.2182 4.01953 19.3752 4.17655 19.3752 4.37026V19.7092C19.3752 19.9029 19.2182 20.0599 19.0245 20.0599H16.5675C16.3738 20.0599 16.2168 19.9029 16.2168 19.7092V4.37026C16.2168 4.17655 16.3738 4.01953 16.5675 4.01953Z" fill="white"/>
<path d="M5.0503 2.89453C4.5874 2.89453 4.21191 3.26978 4.21191 3.73269V20.1601C4.21191 20.623 4.58717 20.9983 5.05008 20.9983C5.51301 20.9983 5.8885 20.623 5.8885 20.1601V3.73269C5.8885 3.26978 5.51324 2.89453 5.0503 2.89453Z" fill="#EBBF4A"/>
<path d="M9.98399 2H7.60593C7.33439 2 7.11426 2.22012 7.11426 2.49167V2.85802C7.11426 3.12955 7.33439 3.34968 7.60593 3.34968H9.98399C10.2555 3.34968 10.4757 3.12955 10.4757 2.85802V2.49167C10.4757 2.22012 10.2555 2 9.98399 2Z" fill="#FC4848"/>
<path d="M16.9848 2.85938H6.41321C5.93798 2.85938 5.55273 3.24461 5.55273 3.71984V20.1027C5.55273 20.5779 5.93798 20.9632 6.41321 20.9632H16.9848C17.46 20.9632 17.8453 20.5779 17.8453 20.1027V3.71984C17.8453 3.24461 17.46 2.85938 16.9848 2.85938Z" fill="#FFC733"/>
<path d="M7.85356 2.49219H10.2128C10.3477 2.49219 10.457 2.60152 10.457 2.73639V5.99418C10.457 6.26391 10.2384 6.48258 9.96863 6.48258C9.87286 6.48258 9.77918 6.45441 9.69929 6.40159L9.06712 5.98369L8.3582 6.43052C8.13001 6.57434 7.82841 6.50596 7.68458 6.27776C7.63543 6.19979 7.60938 6.10952 7.60938 6.01736V2.73639C7.60938 2.60152 7.71871 2.49219 7.85356 2.49219Z" fill="#FC4848"/>
</svg>
