<svg width="24" height="24" viewBox="0 0 24 24" fill="none" xmlns="http://www.w3.org/2000/svg">
<path d="M11.9996 13.2234C11.8329 13.2234 11.6704 13.2026 11.5121 13.1609C11.3538 13.1193 11.1996 13.0568 11.0496 12.9734L2.59961 8.37344C2.41628 8.27344 2.28711 8.14844 2.21211 7.99844C2.13711 7.84844 2.09961 7.68177 2.09961 7.49844C2.09961 7.3151 2.13711 7.14844 2.21211 6.99844C2.28711 6.84844 2.41628 6.72344 2.59961 6.62344L11.0496 2.02344C11.1996 1.9401 11.3538 1.8776 11.5121 1.83594C11.6704 1.79427 11.8329 1.77344 11.9996 1.77344C12.1663 1.77344 12.3288 1.79427 12.4871 1.83594C12.6454 1.8776 12.7996 1.9401 12.9496 2.02344L21.3996 6.62344C21.5829 6.72344 21.7121 6.84844 21.7871 6.99844C21.8621 7.14844 21.8996 7.3151 21.8996 7.49844C21.8996 7.68177 21.8621 7.84844 21.7871 7.99844C21.7121 8.14844 21.5829 8.27344 21.3996 8.37344L12.9496 12.9734C12.7996 13.0568 12.6454 13.1193 12.4871 13.1609C12.3288 13.2026 12.1663 13.2234 11.9996 13.2234Z" fill="#911DD8"/>
<path fill-rule="evenodd" clip-rule="evenodd" d="M11.9996 19.2234L19.8496 14.9484C19.8829 14.9318 20.0413 14.8901 20.3246 14.8234C20.6079 14.8234 20.8454 14.9193 21.0371 15.1109C21.2288 15.3026 21.3246 15.5401 21.3246 15.8234C21.3246 16.0068 21.2829 16.1734 21.1996 16.3234C21.1163 16.4734 20.9829 16.5984 20.7996 16.6984L16.8746 18.8359L12.9496 20.9734C12.7996 21.0568 12.6454 21.1193 12.4871 21.1609C12.3288 21.2026 12.1663 21.2234 11.9996 21.2234C11.8329 21.2234 11.6704 21.2026 11.5121 21.1609C11.3538 21.1193 11.1996 21.0568 11.0496 20.9734L3.19961 16.6984C3.01628 16.5984 2.88294 16.4734 2.79961 16.3234C2.71628 16.1734 2.67461 16.0068 2.67461 15.8234C2.67461 15.5401 2.77044 15.3026 2.96211 15.1109C3.15378 14.9193 3.39128 14.8234 3.67461 14.8234C3.75794 14.8234 3.83711 14.8359 3.91211 14.8609C3.98711 14.8859 4.06628 14.9151 4.14961 14.9484L11.9996 19.2234Z" fill="#D2AAEB"/>
<path d="M11.9996 15.2234L19.8496 10.9484C19.8829 10.9318 20.0413 10.8901 20.3246 10.8234C20.6079 10.8234 20.8454 10.9193 21.0371 11.1109C21.2288 11.3026 21.3246 11.5401 21.3246 11.8234C21.3246 12.0068 21.2829 12.1734 21.1996 12.3234C21.1163 12.4734 20.9829 12.5984 20.7996 12.6984L12.9496 16.9734C12.7996 17.0568 12.6454 17.1193 12.4871 17.1609C12.3288 17.2026 12.1663 17.2234 11.9996 17.2234C11.8329 17.2234 11.6704 17.2026 11.5121 17.1609C11.3538 17.1193 11.1996 17.0568 11.0496 16.9734L3.19961 12.6984C3.01628 12.5984 2.88294 12.4734 2.79961 12.3234C2.71628 12.1734 2.67461 12.0068 2.67461 11.8234C2.67461 11.5401 2.77044 11.3026 2.96211 11.1109C3.15378 10.9193 3.39128 10.8234 3.67461 10.8234C3.75794 10.8234 3.83711 10.8359 3.91211 10.8609C3.98711 10.8859 4.06628 10.9151 4.14961 10.9484L11.9996 15.2234Z" fill="#AE67DA"/>
<rect x="5.14648" y="6.43359" width="7.82761" height="1.69324" rx="0.846619" transform="rotate(-28.8846 5.14648 6.43359)" fill="white" fill-opacity="0.3"/>
</svg>
