<svg width="24" height="24" viewBox="0 0 24 24" fill="none" xmlns="http://www.w3.org/2000/svg">
<path d="M17.5 20.5C17.2167 20.5 16.9792 20.4042 16.7875 20.2125C16.5958 20.0208 16.5 19.7833 16.5 19.5V11.5C16.5 11.2167 16.5958 10.9792 16.7875 10.7875C16.9792 10.5958 17.2167 10.5 17.5 10.5H21C21.2833 10.5 21.5208 10.5958 21.7125 10.7875C21.9042 10.9792 22 11.2167 22 11.5V19.5C22 19.7833 21.9042 20.0208 21.7125 20.2125C21.5208 20.4042 21.2833 20.5 21 20.5H17.5Z" fill="#FFD900"/>
<path d="M10.25 20.5C9.96667 20.5 9.72917 20.4042 9.5375 20.2125C9.34583 20.0208 9.25 19.7833 9.25 19.5V3.5C9.25 3.21667 9.34583 2.97917 9.5375 2.7875C9.72917 2.59583 9.96667 2.5 10.25 2.5H13.75C14.0333 2.5 14.2708 2.59583 14.4625 2.7875C14.6542 2.97917 14.75 3.21667 14.75 3.5V19.5C14.75 19.7833 14.6542 20.0208 14.4625 20.2125C14.2708 20.4042 14.0333 20.5 13.75 20.5H10.25Z" fill="#F7C100"/>
<path d="M3 20.5C2.71667 20.5 2.47917 20.4042 2.2875 20.2125C2.09583 20.0208 2 19.7833 2 19.5V9.5C2 9.21667 2.09583 8.97917 2.2875 8.7875C2.47917 8.59583 2.71667 8.5 3 8.5H6.5C6.78333 8.5 7.02083 8.59583 7.2125 8.7875C7.40417 8.97917 7.5 9.21667 7.5 9.5V19.5C7.5 19.7833 7.40417 20.0208 7.2125 20.2125C7.02083 20.4042 6.78333 20.5 6.5 20.5H3Z" fill="#FFD900"/>
<rect x="10.0078" y="11.0586" width="7.82761" height="1.69324" rx="0.846619" transform="rotate(-90 10.0078 11.0586)" fill="#F7C100"/>
</svg>
