<svg width="21" height="21" viewBox="0 0 21 21" fill="none" xmlns="http://www.w3.org/2000/svg">
<path fill-rule="evenodd" clip-rule="evenodd" d="M7.15 18.5H4.5C3.95 18.5 3.47917 18.3042 3.0875 17.9125C2.69583 17.5208 2.5 17.05 2.5 16.5V13.85L0.575 11.9C0.391667 11.7 0.25 11.4792 0.15 11.2375C0.05 10.9958 0 10.75 0 10.5C0 10.25 0.05 10.0042 0.15 9.7625C0.25 9.52083 0.391667 9.3 0.575 9.1L2.5 7.15V4.5C2.5 3.95 2.69583 3.47917 3.0875 3.0875C3.47917 2.69583 3.95 2.5 4.5 2.5H7.15L9.1 0.575C9.3 0.391667 9.52083 0.25 9.7625 0.15C10.0042 0.05 10.25 0 10.5 0C10.75 0 10.9958 0.05 11.2375 0.15C11.4792 0.25 11.7 0.391667 11.9 0.575L13.85 2.5H16.5C17.05 2.5 17.5208 2.69583 17.9125 3.0875C18.3042 3.47917 18.5 3.95 18.5 4.5V7.15L20.425 9.1C20.6083 9.3 20.75 9.52083 20.85 9.7625C20.95 10.0042 21 10.25 21 10.5C21 10.75 20.95 10.9958 20.85 11.2375C20.75 11.4792 20.6083 11.7 20.425 11.9L18.5 13.85V16.5C18.5 17.05 18.3042 17.5208 17.9125 17.9125C17.5208 18.3042 17.05 18.5 16.5 18.5H13.85L11.9 20.425C11.7 20.6083 11.4792 20.75 11.2375 20.85C10.9958 20.95 10.75 21 10.5 21C10.25 21 10.0042 20.95 9.7625 20.85C9.52083 20.75 9.3 20.6083 9.1 20.425L7.15 18.5ZM14.0375 14.0375C13.0625 15.0125 11.8833 15.5 10.5 15.5C9.11667 15.5 7.9375 15.0125 6.9625 14.0375C5.9875 13.0625 5.5 11.8833 5.5 10.5C5.5 9.11667 5.9875 7.9375 6.9625 6.9625C7.9375 5.9875 9.11667 5.5 10.5 5.5C11.8833 5.5 13.0625 5.9875 14.0375 6.9625C15.0125 7.9375 15.5 9.11667 15.5 10.5C15.5 11.8833 15.0125 13.0625 14.0375 14.0375Z" fill="#A4DFFB"/>
<path d="M10.5 13.5C9.66667 13.5 8.95833 13.2083 8.375 12.625C7.79167 12.0417 7.5 11.3333 7.5 10.5C7.5 9.66667 7.79167 8.95833 8.375 8.375C8.95833 7.79167 9.66667 7.5 10.5 7.5C11.3333 7.5 12.0417 7.79167 12.625 8.375C13.2083 8.95833 13.5 9.66667 13.5 10.5C13.5 11.3333 13.2083 12.0417 12.625 12.625C12.0417 13.2083 11.3333 13.5 10.5 13.5Z" fill="#066FA1"/>
<path fill-rule="evenodd" clip-rule="evenodd" d="M10.5 15.5C11.8833 15.5 13.0625 15.0125 14.0375 14.0375C15.0125 13.0625 15.5 11.8833 15.5 10.5C15.5 9.11667 15.0125 7.9375 14.0375 6.9625C13.0625 5.9875 11.8833 5.5 10.5 5.5C9.11667 5.5 7.9375 5.9875 6.9625 6.9625C5.9875 7.9375 5.5 9.11667 5.5 10.5C5.5 11.8833 5.9875 13.0625 6.9625 14.0375C7.9375 15.0125 9.11667 15.5 10.5 15.5ZM8.375 12.625C8.95833 13.2083 9.66667 13.5 10.5 13.5C11.3333 13.5 12.0417 13.2083 12.625 12.625C13.2083 12.0417 13.5 11.3333 13.5 10.5C13.5 9.66667 13.2083 8.95833 12.625 8.375C12.0417 7.79167 11.3333 7.5 10.5 7.5C9.66667 7.5 8.95833 7.79167 8.375 8.375C7.79167 8.95833 7.5 9.66667 7.5 10.5C7.5 11.3333 7.79167 12.0417 8.375 12.625Z" fill="#49C0F8"/>
</svg>
