<svg width="24" height="24" viewBox="0 0 24 24" fill="none" xmlns="http://www.w3.org/2000/svg">
<path d="M13.8295 18.1719H10.7692C10.5202 18.1719 10.3184 18.3737 10.3184 18.6227V19.5497C10.3184 19.7986 10.5202 20.0005 10.7692 20.0005H13.8295C14.0785 20.0005 14.2803 19.7986 14.2803 19.5497V18.6227C14.2803 18.3737 14.0785 18.1719 13.8295 18.1719Z" fill="#F9B008"/>
<path fill-rule="evenodd" clip-rule="evenodd" d="M3.63595 4.45703H20.9634C21.4613 4.45703 21.865 4.86068 21.865 5.3586V18.6413C21.865 19.1392 21.4613 19.5429 20.9634 19.5429H3.63595C3.13802 19.5429 2.73438 19.1392 2.73438 18.6413V5.3586C2.73438 4.86068 3.13802 4.45703 3.63595 4.45703Z" fill="#F9B008"/>
<path d="M13.4902 17.1445H11.109C10.86 17.1445 10.6582 17.3464 10.6582 17.5953V18.1795C10.6582 18.4284 10.86 18.6303 11.109 18.6303H13.4902C13.7391 18.6303 13.941 18.4284 13.941 18.1795V17.5953C13.941 17.3464 13.7391 17.1445 13.4902 17.1445Z" fill="#E8DFD2"/>
<path fill-rule="evenodd" clip-rule="evenodd" d="M3.97949 15.0859H20.7329V17.6066C20.7329 17.8556 20.5311 18.0574 20.2822 18.0574H12.3564H9.75243H4.43028C4.18132 18.0574 3.97949 17.8556 3.97949 17.6066V15.0859Z" fill="#E8DFD2"/>
<path fill-rule="evenodd" clip-rule="evenodd" d="M20.7329 16.456H13.9339C13.0626 16.456 12.3562 17.1624 12.3562 18.0338C12.3562 17.1624 11.6498 16.456 10.7785 16.456H3.97949V5.47813C3.97949 5.22917 4.18132 5.02734 4.43028 5.02734H10.7785C11.6498 5.02734 12.3562 5.73373 12.3562 6.60509C12.3562 5.73373 13.0626 5.02734 13.9339 5.02734H20.2822C20.5311 5.02734 20.7329 5.22917 20.7329 5.47813V16.456Z" fill="white"/>
<path d="M10.8868 6.17188H5.22383C5.03711 6.17188 4.88574 6.32324 4.88574 6.50997V6.86237C4.88574 7.04908 5.03711 7.20046 5.22383 7.20046H10.8868C11.0735 7.20046 11.2249 7.04908 11.2249 6.86237V6.50997C11.2249 6.32324 11.0735 6.17188 10.8868 6.17188Z" fill="#E8DFD2"/>
<path d="M10.8868 10.8555H5.22383C5.03711 10.8555 4.88574 11.0068 4.88574 11.1936V11.546C4.88574 11.7327 5.03711 11.8841 5.22383 11.8841H10.8868C11.0735 11.8841 11.2249 11.7327 11.2249 11.546V11.1936C11.2249 11.0068 11.0735 10.8555 10.8868 10.8555Z" fill="#E8DFD2"/>
<path d="M9.64158 8.57031H5.22383C5.03711 8.57031 4.88574 8.72168 4.88574 8.9084V9.26078C4.88574 9.44755 5.03711 9.59892 5.22383 9.59892H9.64158C9.82834 9.59892 9.97971 9.44755 9.97971 9.26078V8.9084C9.97971 8.72168 9.82834 8.57031 9.64158 8.57031Z" fill="#E8DFD2"/>
<path d="M9.64158 13.1445H5.22383C5.03711 13.1445 4.88574 13.2959 4.88574 13.4827V13.8351C4.88574 14.0218 5.03711 14.1731 5.22383 14.1731H9.64158C9.82834 14.1731 9.97971 14.0218 9.97971 13.8351V13.4827C9.97971 13.2959 9.82834 13.1445 9.64158 13.1445Z" fill="#E8DFD2"/>
<path fill-rule="evenodd" clip-rule="evenodd" d="M6.69551 4H9.30211C9.48883 4 9.6402 4.15137 9.6402 4.33809V12.5696C9.6402 12.7563 9.48883 12.9077 9.30211 12.9077C9.24032 12.9077 9.17977 12.8907 9.12693 12.8587L8.12376 12.2511C8.01286 12.184 7.87335 12.1861 7.76459 12.2566L6.87953 12.8309C6.72289 12.9325 6.51352 12.8879 6.41189 12.7313C6.37634 12.6765 6.35742 12.6126 6.35742 12.5473V4.33809C6.35742 4.15137 6.50879 4 6.69551 4Z" fill="#FC4848"/>
<path d="M19.6026 6.17188H13.9396C13.7529 6.17188 13.6016 6.32324 13.6016 6.50997V6.86237C13.6016 7.04908 13.7529 7.20046 13.9396 7.20046H19.6026C19.7894 7.20046 19.9407 7.04908 19.9407 6.86237V6.50997C19.9407 6.32324 19.7894 6.17188 19.6026 6.17188Z" fill="#E8DFD2"/>
<path d="M19.6026 10.8555H13.9396C13.7529 10.8555 13.6016 11.0068 13.6016 11.1936V11.546C13.6016 11.7327 13.7529 11.8841 13.9396 11.8841H19.6026C19.7894 11.8841 19.9407 11.7327 19.9407 11.546V11.1936C19.9407 11.0068 19.7894 10.8555 19.6026 10.8555Z" fill="#E8DFD2"/>
<path d="M18.3574 8.57031H13.9396C13.7529 8.57031 13.6016 8.72168 13.6016 8.9084V9.26078C13.6016 9.44755 13.7529 9.59892 13.9396 9.59892H18.3574C18.5441 9.59892 18.6955 9.44755 18.6955 9.26078V8.9084C18.6955 8.72168 18.5441 8.57031 18.3574 8.57031Z" fill="#E8DFD2"/>
<path d="M18.3574 13.1445H13.9396C13.7529 13.1445 13.6016 13.2959 13.6016 13.4827V13.8351C13.6016 14.0218 13.7529 14.1731 13.9396 14.1731H18.3574C18.5441 14.1731 18.6955 14.0218 18.6955 13.8351V13.4827C18.6955 13.2959 18.5441 13.1445 18.3574 13.1445Z" fill="#E8DFD2"/>
</svg>
