<svg width="24" height="24" viewBox="0 0 24 24" fill="none" xmlns="http://www.w3.org/2000/svg">
<mask id="mask0_5198_4602" style="mask-type:alpha" maskUnits="userSpaceOnUse" x="0" y="0" width="24" height="24">
<rect width="24" height="24" fill="#D9D9D9"/>
</mask>
<g mask="url(#mask0_5198_4602)">
<path d="M10.9765 21.9311C11.7152 22.8798 13.0844 23.0529 14.035 22.3174C14.9852 21.5821 15.1569 20.2168 14.4182 19.2678C13.6793 18.3191 12.3101 18.146 11.3598 18.8816C10.4093 19.6171 10.2376 20.9824 10.9765 21.9311Z" fill="#FFA600"/>
<path fill-rule="evenodd" clip-rule="evenodd" d="M11.9814 4.34123L12.2929 4.33912C15.5115 4.30071 18.1456 6.88943 18.1731 10.0908L18.2199 14.6036L20.5174 18.5659C20.767 18.9813 20.6163 19.519 20.1969 19.7507C20.0654 19.8236 19.9112 19.8644 19.7691 19.8679L5.21269 19.9713C4.7319 19.9725 4.33567 19.5879 4.33471 19.1085C4.33392 18.9842 4.36036 18.8648 4.41449 18.7501L6.25653 14.6559L6.20304 10.2152C6.17275 6.99638 8.75286 4.37235 11.9814 4.34123Z" fill="#FFC800"/>
<path d="M10.3411 4.6418C10.28 4.56332 10.2286 4.47733 10.1775 4.39106C9.89251 3.90377 9.82272 3.32826 9.97039 2.78948C10.1181 2.25043 10.4687 1.79013 10.9572 1.50655C11.4454 1.22325 12.0225 1.15451 12.5629 1.30228C13.1036 1.45034 13.5656 1.80071 13.8506 2.28828C14.1354 2.77557 14.2052 3.3508 14.0575 3.88985C13.7557 5.02 12.5889 5.68707 11.4552 5.38457C11.0094 5.25739 10.6239 5.00497 10.3411 4.6418ZM12.7723 2.74496C12.6425 2.57826 12.4708 2.45915 12.2731 2.40766C12.0328 2.34171 11.7718 2.37065 11.5423 2.50117C11.3229 2.6239 11.1546 2.83262 11.0965 3.08197C11.0309 3.32158 11.0602 3.58206 11.1914 3.8111C11.3148 4.03012 11.5244 4.1982 11.7746 4.25637C12.2801 4.39997 12.8155 4.09579 12.9512 3.58206C13.0168 3.34245 12.9872 3.08197 12.8563 2.85293C12.8158 2.82121 12.803 2.7842 12.7723 2.74496Z" fill="#FFC800"/>
<path d="M15.3796 11.5856C15.1191 11.3939 14.9549 11.0721 14.9824 10.7217C15.0794 9.29541 14.6064 8.28281 13.495 7.52599C13.0394 7.22115 12.9279 6.59856 13.2336 6.14446C13.5393 5.69009 14.1639 5.57872 14.6195 5.88357C16.3041 7.01622 17.116 8.74147 16.9789 10.8487C16.9455 11.3955 16.4649 11.8138 15.9167 11.7805C15.6998 11.7598 15.5299 11.6963 15.3796 11.5856Z" fill="#FFEB66"/>
<path d="M17.7534 18.9079C17.6633 18.8413 17.5778 18.7477 17.5098 18.6515L16.7043 17.4402C16.4044 16.9878 16.5248 16.3658 16.9959 16.0644C17.4497 15.7655 18.0736 15.8853 18.3758 16.355L19.1816 17.5662C19.4811 18.0185 19.361 18.6404 18.8897 18.9419C18.5324 19.1728 18.0841 19.1513 17.7534 18.9079Z" fill="#FFEB66"/>
</g>
</svg>
