<svg width="24" height="24" viewBox="0 0 24 24" fill="none" xmlns="http://www.w3.org/2000/svg">
<g clip-path="url(#clip0_5198_4593)">
<g clip-path="url(#clip1_5198_4593)">
<path d="M4.89717 5.08834L10.0772 1.96194C11.1925 1.28873 12.589 1.28873 13.7044 1.96194L18.8844 5.08754C19.9373 5.72306 20.5807 6.86332 20.5804 8.09314V15.8259C20.5804 17.0555 19.937 18.1954 18.8844 18.8307L13.7044 21.9563C12.589 22.6296 11.1925 22.6296 10.0772 21.9563L4.89717 18.8307C3.84452 18.1954 3.20117 17.0555 3.20117 15.8259V8.09314C3.20117 6.86274 3.84437 5.72434 4.89717 5.08834Z" fill="url(#paint0_linear_5198_4593)" stroke="white" stroke-width="1.6"/>
<path opacity="0.793" d="M11.9125 5.01681V7.54881C11.9125 7.85121 11.7541 8.13121 11.4965 8.28801L9.13813 9.71441C8.84516 9.89156 8.47523 9.87901 8.19493 9.68241L6.28614 8.34481C6.04775 8.17775 5.90951 7.90189 5.91837 7.61093C5.92724 7.31997 6.08202 7.05304 6.33013 6.90081L10.5965 4.28001C10.8631 4.11638 11.1973 4.10959 11.4703 4.26226C11.7433 4.41494 11.9124 4.70403 11.9125 5.01681Z" fill="white"/>
</g>
</g>
<defs>
<linearGradient id="paint0_linear_5198_4593" x1="11.8908" y1="1.45703" x2="11.8908" y2="22.4613" gradientUnits="userSpaceOnUse">
<stop stop-color="#FB5959"/>
<stop offset="1" stop-color="#F94646"/>
</linearGradient>
<clipPath id="clip0_5198_4593">
<rect width="24" height="24" fill="white"/>
</clipPath>
<clipPath id="clip1_5198_4593">
<rect width="19.2" height="24" fill="white" transform="translate(2.40039)"/>
</clipPath>
</defs>
</svg>
