<svg width="24" height="24" viewBox="0 0 24 24" fill="none" xmlns="http://www.w3.org/2000/svg">
<path d="M11.9994 20.868C16.898 20.868 20.869 16.897 20.869 11.9985C20.869 7.09995 16.898 3.12891 11.9994 3.12891C7.10092 3.12891 3.12988 7.09995 3.12988 11.9985C3.12988 16.897 7.10092 20.868 11.9994 20.868Z" fill="#1CB0F6" stroke="#1CB0F6" stroke-width="0.933638"/>
<path d="M8.26469 12.9337C8.78033 12.9337 9.19833 12.5157 9.19833 12C9.19833 11.4844 8.78033 11.0664 8.26469 11.0664C7.74906 11.0664 7.33105 11.4844 7.33105 12C7.33105 12.5157 7.74906 12.9337 8.26469 12.9337Z" fill="white"/>
<path d="M12 12.9337C12.5157 12.9337 12.9337 12.5157 12.9337 12C12.9337 11.4844 12.5157 11.0664 12 11.0664C11.4844 11.0664 11.0664 11.4844 11.0664 12C11.0664 12.5157 11.4844 12.9337 12 12.9337Z" fill="#84D8FF"/>
<path d="M15.7344 12.9337C16.2501 12.9337 16.6681 12.5157 16.6681 12C16.6681 11.4844 16.2501 11.0664 15.7344 11.0664C15.2188 11.0664 14.8008 11.4844 14.8008 12C14.8008 12.5157 15.2188 12.9337 15.7344 12.9337Z" fill="white"/>
</svg>
